<svg width="108" height="38" viewBox="0 0 108 38" fill="none" xmlns="http://www.w3.org/2000/svg">
<path d="M0.96 29H9.856V28.552C6.656 28.136 5.696 26.792 5.696 23.56V8.872H5.888L14.208 29.032H15.36L22.816 8.872H22.976V26.728C22.976 28.008 22.176 28.456 19.904 28.552V29H30.944V28.552C28.256 28.456 27.616 27.944 27.616 26.728V8.968C27.616 7.752 28.256 7.208 30.944 7.112V6.696H22.784L16.736 23.144H16.576L9.984 6.696H0.96V7.112C3.712 7.176 4.896 8.648 4.896 10.568V23.56C4.896 26.792 3.968 28.168 0.96 28.552V29Z" fill="white"/>
<path d="M52.128 29.352H53.664V12.104C53.664 8.936 54.528 7.56 57.536 7.112V6.696H48.448V7.112C51.68 7.496 52.864 8.936 52.864 12.104V22.728H52.832L40.512 6.696H32.96V7.112C35.712 7.24 36.896 8.872 36.896 10.824V23.56C36.896 26.792 35.968 28.168 32.96 28.552V29H41.984V28.552C38.72 28.2 37.696 26.792 37.696 23.56V10.728H37.728L52.128 29.352Z" fill="white"/>
<path d="M63.6 29H75.696V28.552C72.848 28.488 71.984 27.944 71.984 26.728V7.272H72.752C75.216 7.272 77.136 9.736 79.376 14.088L79.856 14.024L79.696 6.696H59.568L59.376 14.024L59.856 14.088C62.128 9.64 64.08 7.272 66.512 7.272H67.312V26.728C67.312 27.944 66.416 28.488 63.6 28.552V29Z" fill="white"/>
<path d="M102.128 29.352H103.664V12.104C103.664 8.936 104.528 7.56 107.536 7.112V6.696H98.448V7.112C101.68 7.496 102.864 8.936 102.864 12.104V22.728H102.832L90.512 6.696H82.96V7.112C85.712 7.24 86.896 8.872 86.896 10.824V23.56C86.896 26.792 85.968 28.168 82.96 28.552V29H91.984V28.552C88.72 28.2 87.696 26.792 87.696 23.56V10.728H87.728L102.128 29.352Z" fill="white"/>
</svg>
