<?xml version="1.0" standalone="no"?>
<!DOCTYPE svg PUBLIC "-//W3C//DTD SVG 20010904//EN"
 "http://www.w3.org/TR/2001/REC-SVG-20010904/DTD/svg10.dtd">
<svg version="1.0" xmlns="http://www.w3.org/2000/svg"
 width="96.000000pt" height="96.000000pt" viewBox="0 0 96.000000 96.000000"
 preserveAspectRatio="xMidYMid meet">

<g transform="translate(0.000000,96.000000) scale(0.100000,-0.100000)"
fill="#000000" stroke="none">
<path d="M180 765 l0 -105 30 0 30 0 0 75 0 75 240 0 240 0 0 -75 0 -75 30 0
30 0 0 105 0 105 -300 0 -300 0 0 -105z"/>
<path d="M150 480 l0 -120 30 0 c29 0 30 2 30 45 0 33 4 45 15 45 11 0 15 -12
15 -45 0 -43 1 -45 30 -45 l30 0 0 120 0 120 -30 0 c-29 0 -30 -2 -30 -45 0
-33 -4 -45 -15 -45 -11 0 -15 12 -15 45 0 43 -1 45 -30 45 l-30 0 0 -120z"/>
<path d="M330 570 c0 -20 5 -30 15 -30 12 0 15 -17 15 -90 l0 -90 30 0 30 0 0
90 c0 73 3 90 15 90 10 0 15 10 15 30 l0 30 -60 0 -60 0 0 -30z"/>
<path d="M480 480 l0 -120 30 0 30 0 0 66 c0 58 2 65 15 54 12 -10 18 -10 30
0 13 11 15 4 15 -54 l0 -66 30 0 30 0 0 120 0 120 -27 0 c-14 0 -35 -7 -45
-17 -17 -15 -19 -15 -36 0 -10 10 -31 17 -45 17 l-27 0 0 -120z"/>
<path d="M690 480 l0 -120 60 0 60 0 0 30 c0 27 -3 30 -30 30 l-30 0 0 90 0
90 -30 0 -30 0 0 -120z"/>
<path d="M180 195 l0 -105 300 0 300 0 0 105 0 105 -30 0 -30 0 0 -75 0 -75
-240 0 -240 0 0 75 0 75 -30 0 -30 0 0 -105z"/>
</g>
</svg>
